solid HOUSE
facet normal 0.0 0.0 -1.0
outer loop
vertex 591.962442742656 428.823782811289 0.0
vertex 566.562442742656 378.023782811289 0.0
vertex 566.562442742656 428.823782811289 0.0
endloop
endfacet
facet normal 0.0 0.0 -1.0
outer loop
vertex 566.562442742656 378.023782811289 0.0
vertex 591.962442742656 428.823782811289 0.0
vertex 573.820677711684 379.155860811289 0.0
endloop
endfacet
facet normal 0.0 0.0 -1.0
outer loop
vertex 573.820677711684 379.155860811289 0.0
vertex 591.962442742656 428.823782811289 0.0
vertex 582.243241511684 379.155860811289 0.0
endloop
endfacet
facet normal 0.0 0.0 -1.0
outer loop
vertex 582.243241511684 379.155860811289 0.0
vertex 591.962442742656 428.823782811289 0.0
vertex 582.243241511684 378.023782811289 0.0
endloop
endfacet
facet normal 0.0 0.0 -1.0
outer loop
vertex 582.243241511684 378.023782811289 0.0
vertex 591.962442742656 428.823782811289 0.0
vertex 591.962442742656 378.023782811289 0.0
endloop
endfacet
facet normal 0.0 0.0 -1.0
outer loop
vertex 573.820677711684 378.023782811289 0.0
vertex 566.562442742656 378.023782811289 0.0
vertex 573.820677711684 379.155860811289 0.0
endloop
endfacet
facet normal -0.671899968101186 -0.0 0.740641905961055
outer loop
vertex 579.262442742655 378.023782811289 39.9903696
vertex 566.562442742656 428.823782811289 28.4691074
vertex 566.562442742656 378.023782811289 28.4691074
endloop
endfacet
facet normal -0.671899968101186 -0.0 0.740641905961055
outer loop
vertex 566.562442742656 428.823782811289 28.4691074
vertex 579.262442742655 378.023782811289 39.9903696
vertex 579.262442742655 428.823782811289 39.9903696
endloop
endfacet
facet normal -0.0 1.0 -0.0
outer loop
vertex 566.562442742656 428.823782811289 28.4691074
vertex 591.962442742656 428.823782811289 0.0
vertex 566.562442742656 428.823782811289 0.0
endloop
endfacet
facet normal -0.0 1.0 -0.0
outer loop
vertex 591.962442742656 428.823782811289 0.0
vertex 566.562442742656 428.823782811289 28.4691074
vertex 591.962442742656 428.823782811289 28.4691074
endloop
endfacet
facet normal -0.0 1.0 -0.0
outer loop
vertex 591.962442742656 428.823782811289 28.4691074
vertex 566.562442742656 428.823782811289 28.4691074
vertex 579.262442742655 428.823782811289 39.9903696
endloop
endfacet
facet normal 1.0 0.0 0.0
outer loop
vertex 591.962442742656 378.023782811289 0.0
vertex 591.962442742656 384.664140737633 7.19130805773672
vertex 591.962442742656 378.023782811289 28.4691074
endloop
endfacet
facet normal 1.0 0.0 0.0
outer loop
vertex 591.962442742656 384.664140737633 7.19130805773672
vertex 591.962442742656 378.023782811289 0.0
vertex 591.962442742656 428.823782811289 0.0
endloop
endfacet
facet normal 1.0 0.0 0.0
outer loop
vertex 591.962442742656 384.664140737633 7.19130805773672
vertex 591.962442742656 428.823782811289 0.0
vertex 591.962442742656 391.041572737633 7.19130805773672
endloop
endfacet
facet normal 1.0 0.0 0.0
outer loop
vertex 591.962442742656 391.041572737633 7.19130805773672
vertex 591.962442742656 428.823782811289 0.0
vertex 591.962442742656 405.928666288954 6.86594439195566
endloop
endfacet
facet normal 1.0 0.0 0.0
outer loop
vertex 591.962442742656 391.041572737633 7.19130805773672
vertex 591.962442742656 405.928666288954 6.86594439195566
vertex 591.962442742656 391.041572737633 14.9584248577367
endloop
endfacet
facet normal 1.0 0.0 0.0
outer loop
vertex 591.962442742656 405.928666288954 6.86594439195566
vertex 591.962442742656 428.823782811289 0.0
vertex 591.962442742656 412.638101688954 6.86594439195566
endloop
endfacet
facet normal 1.0 0.0 0.0
outer loop
vertex 591.962442742656 412.638101688954 6.86594439195566
vertex 591.962442742656 428.823782811289 0.0
vertex 591.962442742656 412.638101688954 14.7719483919557
endloop
endfacet
facet normal 1.0 0.0 0.0
outer loop
vertex 591.962442742656 378.023782811289 28.4691074
vertex 591.962442742656 384.664140737633 14.9584248577367
vertex 591.962442742656 428.823782811289 28.4691074
endloop
endfacet
facet normal 1.0 0.0 0.0
outer loop
vertex 591.962442742656 384.664140737633 14.9584248577367
vertex 591.962442742656 378.023782811289 28.4691074
vertex 591.962442742656 384.664140737633 7.19130805773672
endloop
endfacet
facet normal 1.0 0.0 0.0
outer loop
vertex 591.962442742656 428.823782811289 28.4691074
vertex 591.962442742656 384.664140737633 14.9584248577367
vertex 591.962442742656 391.041572737633 14.9584248577367
endloop
endfacet
facet normal 1.0 0.0 0.0
outer loop
vertex 591.962442742656 428.823782811289 28.4691074
vertex 591.962442742656 391.041572737633 14.9584248577367
vertex 591.962442742656 405.928666288954 14.7719483919557
endloop
endfacet
facet normal 1.0 0.0 0.0
outer loop
vertex 591.962442742656 405.928666288954 14.7719483919557
vertex 591.962442742656 391.041572737633 14.9584248577367
vertex 591.962442742656 405.928666288954 6.86594439195566
endloop
endfacet
facet normal 1.0 0.0 0.0
outer loop
vertex 591.962442742656 428.823782811289 28.4691074
vertex 591.962442742656 405.928666288954 14.7719483919557
vertex 591.962442742656 412.638101688954 14.7719483919557
endloop
endfacet
facet normal 1.0 0.0 0.0
outer loop
vertex 591.962442742656 428.823782811289 28.4691074
vertex 591.962442742656 412.638101688954 14.7719483919557
vertex 591.962442742656 428.823782811289 0.0
endloop
endfacet
facet normal 0.671899968101186 -0.0 0.740641905961055
outer loop
vertex 591.962442742656 378.023782811289 28.4691074
vertex 579.262442742655 428.823782811289 39.9903696
vertex 579.262442742655 378.023782811289 39.9903696
endloop
endfacet
facet normal 0.671899968101186 -0.0 0.740641905961055
outer loop
vertex 579.262442742655 428.823782811289 39.9903696
vertex 591.962442742656 378.023782811289 28.4691074
vertex 591.962442742656 428.823782811289 28.4691074
endloop
endfacet
facet normal -0.0 -0.0 1.0
outer loop
vertex 588.670976304421 382.033673549224 36.5563258940059
vertex 583.047822704421 390.814224949224 36.5563258940059
vertex 583.047822704421 382.033673549224 36.5563258940059
endloop
endfacet
facet normal -0.0 -0.0 1.0
outer loop
vertex 583.047822704421 390.814224949224 36.5563258940059
vertex 588.670976304421 382.033673549224 36.5563258940059
vertex 588.670976304421 390.814224949224 36.5563258940059
endloop
endfacet
facet normal -0.0 -0.0 -1.0
outer loop
vertex 588.670976304421 390.814224949224 28.0779074940059
vertex 583.047822704421 382.033673549224 28.0779074940059
vertex 583.047822704421 390.814224949224 28.0779074940059
endloop
endfacet
facet normal -0.0 -0.0 -1.0
outer loop
vertex 583.047822704421 382.033673549224 28.0779074940059
vertex 588.670976304421 390.814224949224 28.0779074940059
vertex 588.670976304421 382.033673549224 28.0779074940059
endloop
endfacet
facet normal -0.0 -1.0 -0.0
outer loop
vertex 588.670976304421 382.033673549224 36.5563258940059
vertex 583.047822704421 382.033673549224 28.0779074940059
vertex 588.670976304421 382.033673549224 28.0779074940059
endloop
endfacet
facet normal -0.0 -1.0 -0.0
outer loop
vertex 583.047822704421 382.033673549224 28.0779074940059
vertex 588.670976304421 382.033673549224 36.5563258940059
vertex 583.047822704421 382.033673549224 36.5563258940059
endloop
endfacet
facet normal -1.0 0.0 0.0
outer loop
vertex 583.047822704421 390.814224949224 36.5563258940059
vertex 583.047822704421 382.033673549224 28.0779074940059
vertex 583.047822704421 382.033673549224 36.5563258940059
endloop
endfacet
facet normal -1.0 0.0 0.0
outer loop
vertex 583.047822704421 382.033673549224 28.0779074940059
vertex 583.047822704421 390.814224949224 36.5563258940059
vertex 583.047822704421 390.814224949224 28.0779074940059
endloop
endfacet
facet normal -0.0 1.0 0.0
outer loop
vertex 583.047822704421 390.814224949224 36.5563258940059
vertex 588.670976304421 390.814224949224 28.0779074940059
vertex 583.047822704421 390.814224949224 28.0779074940059
endloop
endfacet
facet normal -0.0 1.0 0.0
outer loop
vertex 588.670976304421 390.814224949224 28.0779074940059
vertex 583.047822704421 390.814224949224 36.5563258940059
vertex 588.670976304421 390.814224949224 36.5563258940059
endloop
endfacet
facet normal 1.0 0.0 0.0
outer loop
vertex 588.670976304421 390.814224949224 28.0779074940059
vertex 588.670976304421 382.033673549224 36.5563258940059
vertex 588.670976304421 382.033673549224 28.0779074940059
endloop
endfacet
facet normal 1.0 0.0 0.0
outer loop
vertex 588.670976304421 382.033673549224 36.5563258940059
vertex 588.670976304421 390.814224949224 28.0779074940059
vertex 588.670976304421 390.814224949224 36.5563258940059
endloop
endfacet
facet normal 0.0 -1.0 0.0
outer loop
vertex 582.243241511684 379.155860811289 15.1127206
vertex 573.820677711684 379.155860811289 0.0
vertex 582.243241511684 379.155860811289 0.0
endloop
endfacet
facet normal 0.0 -1.0 0.0
outer loop
vertex 573.820677711684 379.155860811289 0.0
vertex 582.243241511684 379.155860811289 15.1127206
vertex 573.820677711684 379.155860811289 15.1127206
endloop
endfacet
facet normal -1.0 -0.0 0.0
outer loop
vertex 582.243241511684 379.155860811289 15.1127206
vertex 582.243241511684 378.023782811289 0.0
vertex 582.243241511684 378.023782811289 15.1127206
endloop
endfacet
facet normal -1.0 -0.0 0.0
outer loop
vertex 582.243241511684 378.023782811289 0.0
vertex 582.243241511684 379.155860811289 15.1127206
vertex 582.243241511684 379.155860811289 0.0
endloop
endfacet
facet normal -0.0 -0.0 -1.0
outer loop
vertex 582.243241511684 379.155860811289 15.1127206
vertex 573.820677711684 378.023782811289 15.1127206
vertex 573.820677711684 379.155860811289 15.1127206
endloop
endfacet
facet normal -0.0 -0.0 -1.0
outer loop
vertex 573.820677711684 378.023782811289 15.1127206
vertex 582.243241511684 379.155860811289 15.1127206
vertex 582.243241511684 378.023782811289 15.1127206
endloop
endfacet
facet normal 1.0 0.0 0.0
outer loop
vertex 573.820677711684 379.155860811289 0.0
vertex 573.820677711684 378.023782811289 15.1127206
vertex 573.820677711684 378.023782811289 0.0
endloop
endfacet
facet normal 1.0 0.0 0.0
outer loop
vertex 573.820677711684 378.023782811289 15.1127206
vertex 573.820677711684 379.155860811289 0.0
vertex 573.820677711684 379.155860811289 15.1127206
endloop
endfacet
facet normal -1.0 0.0 0.0
outer loop
vertex 566.562442742656 378.023782811289 28.4691074
vertex 566.562442742656 384.827816069882 24.266929110646
vertex 566.562442742656 378.023782811289 0.0
endloop
endfacet
facet normal -1.0 0.0 0.0
outer loop
vertex 566.562442742656 384.827816069882 24.266929110646
vertex 566.562442742656 378.023782811289 28.4691074
vertex 566.562442742656 428.823782811289 28.4691074
endloop
endfacet
facet normal -1.0 0.0 0.0
outer loop
vertex 566.562442742656 384.827816069882 24.266929110646
vertex 566.562442742656 428.823782811289 28.4691074
vertex 566.562442742656 391.477002669882 24.266929110646
endloop
endfacet
facet normal -1.0 0.0 0.0
outer loop
vertex 566.562442742656 391.477002669882 24.266929110646
vertex 566.562442742656 428.823782811289 28.4691074
vertex 566.562442742656 400.240695793116 23.7834502369168
endloop
endfacet
facet normal -1.0 0.0 0.0
outer loop
vertex 566.562442742656 391.477002669882 24.266929110646
vertex 566.562442742656 400.240695793116 23.7834502369168
vertex 566.562442742656 391.477002669882 13.5083191943056
endloop
endfacet
facet normal -1.0 0.0 0.0
outer loop
vertex 566.562442742656 400.240695793116 23.7834502369168
vertex 566.562442742656 428.823782811289 28.4691074
vertex 566.562442742656 406.803827193116 23.7834502369168
endloop
endfacet
facet normal -1.0 0.0 0.0
outer loop
vertex 566.562442742656 406.803827193116 23.7834502369168
vertex 566.562442742656 428.823782811289 28.4691074
vertex 566.562442742656 416.682631176664 23.6832520638485
endloop
endfacet
facet normal -1.0 0.0 0.0
outer loop
vertex 566.562442742656 406.803827193116 23.7834502369168
vertex 566.562442742656 416.682631176664 23.6832520638485
vertex 566.562442742656 406.803827193116 13.1640805590851
endloop
endfacet
facet normal -1.0 0.0 0.0
outer loop
vertex 566.562442742656 416.682631176664 23.6832520638485
vertex 566.562442742656 428.823782811289 28.4691074
vertex 566.562442742656 422.587775576664 23.6832520638485
endloop
endfacet
facet normal -1.0 0.0 0.0
outer loop
vertex 566.562442742656 422.587775576664 23.6832520638485
vertex 566.562442742656 428.823782811289 28.4691074
vertex 566.562442742656 422.587775576664 14.1285277161723
endloop
endfacet
facet normal -1.0 0.0 0.0
outer loop
vertex 566.562442742656 378.023782811289 0.0
vertex 566.562442742656 384.827816069882 13.5083191943056
vertex 566.562442742656 428.823782811289 0.0
endloop
endfacet
facet normal -1.0 0.0 0.0
outer loop
vertex 566.562442742656 384.827816069882 13.5083191943056
vertex 566.562442742656 378.023782811289 0.0
vertex 566.562442742656 384.827816069882 24.266929110646
endloop
endfacet
facet normal -1.0 0.0 0.0
outer loop
vertex 566.562442742656 428.823782811289 0.0
vertex 566.562442742656 384.827816069882 13.5083191943056
vertex 566.562442742656 391.477002669882 13.5083191943056
endloop
endfacet
facet normal -1.0 0.0 0.0
outer loop
vertex 566.562442742656 428.823782811289 0.0
vertex 566.562442742656 391.477002669882 13.5083191943056
vertex 566.562442742656 400.240695793116 13.1640805590851
endloop
endfacet
facet normal -1.0 0.0 0.0
outer loop
vertex 566.562442742656 400.240695793116 13.1640805590851
vertex 566.562442742656 391.477002669882 13.5083191943056
vertex 566.562442742656 400.240695793116 23.7834502369168
endloop
endfacet
facet normal -1.0 0.0 0.0
outer loop
vertex 566.562442742656 428.823782811289 0.0
vertex 566.562442742656 400.240695793116 13.1640805590851
vertex 566.562442742656 406.803827193116 13.1640805590851
endloop
endfacet
facet normal -1.0 0.0 0.0
outer loop
vertex 566.562442742656 428.823782811289 0.0
vertex 566.562442742656 406.803827193116 13.1640805590851
vertex 566.562442742656 416.682631176664 14.1285277161723
endloop
endfacet
facet normal -1.0 0.0 0.0
outer loop
vertex 566.562442742656 416.682631176664 14.1285277161723
vertex 566.562442742656 406.803827193116 13.1640805590851
vertex 566.562442742656 416.682631176664 23.6832520638485
endloop
endfacet
facet normal -1.0 0.0 0.0
outer loop
vertex 566.562442742656 428.823782811289 0.0
vertex 566.562442742656 416.682631176664 14.1285277161723
vertex 566.562442742656 422.587775576664 14.1285277161723
endloop
endfacet
facet normal -1.0 0.0 0.0
outer loop
vertex 566.562442742656 428.823782811289 0.0
vertex 566.562442742656 422.587775576664 14.1285277161723
vertex 566.562442742656 428.823782811289 28.4691074
endloop
endfacet
facet normal 1.0 0.0 0.0
outer loop
vertex 590.846646142656 391.041572737633 7.19130805773672
vertex 590.846646142656 384.664140737633 14.9584248577367
vertex 590.846646142656 384.664140737633 7.19130805773672
endloop
endfacet
facet normal 1.0 0.0 0.0
outer loop
vertex 590.846646142656 384.664140737633 14.9584248577367
vertex 590.846646142656 391.041572737633 7.19130805773672
vertex 590.846646142656 391.041572737633 14.9584248577367
endloop
endfacet
facet normal -0.0 -0.0 -1.0
outer loop
vertex 591.962442742656 391.041572737633 14.9584248577367
vertex 590.846646142656 384.664140737633 14.9584248577367
vertex 590.846646142656 391.041572737633 14.9584248577367
endloop
endfacet
facet normal -0.0 -0.0 -1.0
outer loop
vertex 590.846646142656 384.664140737633 14.9584248577367
vertex 591.962442742656 391.041572737633 14.9584248577367
vertex 591.962442742656 384.664140737633 14.9584248577367
endloop
endfacet
facet normal 0.0 1.0 0.0
outer loop
vertex 590.846646142656 384.664140737633 14.9584248577367
vertex 591.962442742656 384.664140737633 7.19130805773672
vertex 590.846646142656 384.664140737633 7.19130805773672
endloop
endfacet
facet normal 0.0 1.0 0.0
outer loop
vertex 591.962442742656 384.664140737633 7.19130805773672
vertex 590.846646142656 384.664140737633 14.9584248577367
vertex 591.962442742656 384.664140737633 14.9584248577367
endloop
endfacet
facet normal -0.0 -0.0 1.0
outer loop
vertex 591.962442742656 384.664140737633 7.19130805773672
vertex 590.846646142656 391.041572737633 7.19130805773672
vertex 590.846646142656 384.664140737633 7.19130805773672
endloop
endfacet
facet normal -0.0 -0.0 1.0
outer loop
vertex 590.846646142656 391.041572737633 7.19130805773672
vertex 591.962442742656 384.664140737633 7.19130805773672
vertex 591.962442742656 391.041572737633 7.19130805773672
endloop
endfacet
facet normal -0.0 -1.0 0.0
outer loop
vertex 591.962442742656 391.041572737633 14.9584248577367
vertex 590.846646142656 391.041572737633 7.19130805773672
vertex 591.962442742656 391.041572737633 7.19130805773672
endloop
endfacet
facet normal -0.0 -1.0 0.0
outer loop
vertex 590.846646142656 391.041572737633 7.19130805773672
vertex 591.962442742656 391.041572737633 14.9584248577367
vertex 590.846646142656 391.041572737633 14.9584248577367
endloop
endfacet
facet normal 1.0 0.0 0.0
outer loop
vertex 590.979488142656 412.638101688954 6.86594439195566
vertex 590.979488142656 405.928666288954 14.7719483919557
vertex 590.979488142656 405.928666288954 6.86594439195566
endloop
endfacet
facet normal 1.0 0.0 0.0
outer loop
vertex 590.979488142656 405.928666288954 14.7719483919557
vertex 590.979488142656 412.638101688954 6.86594439195566
vertex 590.979488142656 412.638101688954 14.7719483919557
endloop
endfacet
facet normal -0.0 -0.0 -1.0
outer loop
vertex 591.962442742656 412.638101688954 14.7719483919557
vertex 590.979488142656 405.928666288954 14.7719483919557
vertex 590.979488142656 412.638101688954 14.7719483919557
endloop
endfacet
facet normal -0.0 -0.0 -1.0
outer loop
vertex 590.979488142656 405.928666288954 14.7719483919557
vertex 591.962442742656 412.638101688954 14.7719483919557
vertex 591.962442742656 405.928666288954 14.7719483919557
endloop
endfacet
facet normal 0.0 1.0 0.0
outer loop
vertex 590.979488142656 405.928666288954 14.7719483919557
vertex 591.962442742656 405.928666288954 6.86594439195566
vertex 590.979488142656 405.928666288954 6.86594439195566
endloop
endfacet
facet normal 0.0 1.0 0.0
outer loop
vertex 591.962442742656 405.928666288954 6.86594439195566
vertex 590.979488142656 405.928666288954 14.7719483919557
vertex 591.962442742656 405.928666288954 14.7719483919557
endloop
endfacet
facet normal -0.0 -0.0 1.0
outer loop
vertex 591.962442742656 405.928666288954 6.86594439195566
vertex 590.979488142656 412.638101688954 6.86594439195566
vertex 590.979488142656 405.928666288954 6.86594439195566
endloop
endfacet
facet normal -0.0 -0.0 1.0
outer loop
vertex 590.979488142656 412.638101688954 6.86594439195566
vertex 591.962442742656 405.928666288954 6.86594439195566
vertex 591.962442742656 412.638101688954 6.86594439195566
endloop
endfacet
facet normal -0.0 -1.0 0.0
outer loop
vertex 591.962442742656 412.638101688954 14.7719483919557
vertex 590.979488142656 412.638101688954 6.86594439195566
vertex 591.962442742656 412.638101688954 6.86594439195566
endloop
endfacet
facet normal -0.0 -1.0 0.0
outer loop
vertex 590.979488142656 412.638101688954 6.86594439195566
vertex 591.962442742656 412.638101688954 14.7719483919557
vertex 590.979488142656 412.638101688954 14.7719483919557
endloop
endfacet
facet normal 0.0 -1.0 0.0
outer loop
vertex 591.962442742656 378.023782811289 28.4691074
vertex 582.243241511684 378.023782811289 0.0
vertex 591.962442742656 378.023782811289 0.0
endloop
endfacet
facet normal 0.0 -1.0 0.0
outer loop
vertex 582.243241511684 378.023782811289 0.0
vertex 591.962442742656 378.023782811289 28.4691074
vertex 582.243241511684 378.023782811289 15.1127206
endloop
endfacet
facet normal 0.0 -1.0 0.0
outer loop
vertex 582.243241511684 378.023782811289 15.1127206
vertex 591.962442742656 378.023782811289 28.4691074
vertex 573.820677711684 378.023782811289 15.1127206
endloop
endfacet
facet normal 0.0 -1.0 0.0
outer loop
vertex 573.820677711684 378.023782811289 15.1127206
vertex 566.562442742656 378.023782811289 0.0
vertex 573.820677711684 378.023782811289 0.0
endloop
endfacet
facet normal 0.0 -1.0 0.0
outer loop
vertex 566.562442742656 378.023782811289 0.0
vertex 573.820677711684 378.023782811289 15.1127206
vertex 566.562442742656 378.023782811289 28.4691074
endloop
endfacet
facet normal 0.0 -1.0 0.0
outer loop
vertex 566.562442742656 378.023782811289 28.4691074
vertex 573.820677711684 378.023782811289 15.1127206
vertex 591.962442742656 378.023782811289 28.4691074
endloop
endfacet
facet normal 0.0 -1.0 0.0
outer loop
vertex 579.262442742655 378.023782811289 39.9903696
vertex 566.562442742656 378.023782811289 28.4691074
vertex 591.962442742656 378.023782811289 28.4691074
endloop
endfacet
facet normal -1.0 0.0 0.0
outer loop
vertex 567.847479542656 422.587775576664 23.6832520638485
vertex 567.847479542656 416.682631176664 14.1285277161723
vertex 567.847479542656 416.682631176664 23.6832520638485
endloop
endfacet
facet normal -1.0 0.0 0.0
outer loop
vertex 567.847479542656 416.682631176664 14.1285277161723
vertex 567.847479542656 422.587775576664 23.6832520638485
vertex 567.847479542656 422.587775576664 14.1285277161723
endloop
endfacet
facet normal -0.0 1.0 -0.0
outer loop
vertex 566.562442742656 416.682631176664 23.6832520638485
vertex 567.847479542656 416.682631176664 14.1285277161723
vertex 566.562442742656 416.682631176664 14.1285277161723
endloop
endfacet
facet normal -0.0 1.0 -0.0
outer loop
vertex 567.847479542656 416.682631176664 14.1285277161723
vertex 566.562442742656 416.682631176664 23.6832520638485
vertex 567.847479542656 416.682631176664 23.6832520638485
endloop
endfacet
facet normal -0.0 0.0 -1.0
outer loop
vertex 567.847479542656 422.587775576664 23.6832520638485
vertex 566.562442742656 416.682631176664 23.6832520638485
vertex 566.562442742656 422.587775576664 23.6832520638485
endloop
endfacet
facet normal -0.0 0.0 -1.0
outer loop
vertex 566.562442742656 416.682631176664 23.6832520638485
vertex 567.847479542656 422.587775576664 23.6832520638485
vertex 567.847479542656 416.682631176664 23.6832520638485
endloop
endfacet
facet normal -0.0 -1.0 -0.0
outer loop
vertex 567.847479542656 422.587775576664 23.6832520638485
vertex 566.562442742656 422.587775576664 14.1285277161723
vertex 567.847479542656 422.587775576664 14.1285277161723
endloop
endfacet
facet normal -0.0 -1.0 -0.0
outer loop
vertex 566.562442742656 422.587775576664 14.1285277161723
vertex 567.847479542656 422.587775576664 23.6832520638485
vertex 566.562442742656 422.587775576664 23.6832520638485
endloop
endfacet
facet normal 0.0 0.0 1.0
outer loop
vertex 567.847479542656 416.682631176664 14.1285277161723
vertex 566.562442742656 422.587775576664 14.1285277161723
vertex 566.562442742656 416.682631176664 14.1285277161723
endloop
endfacet
facet normal 0.0 0.0 1.0
outer loop
vertex 566.562442742656 422.587775576664 14.1285277161723
vertex 567.847479542656 416.682631176664 14.1285277161723
vertex 567.847479542656 422.587775576664 14.1285277161723
endloop
endfacet
facet normal -1.0 0.0 0.0
outer loop
vertex 568.379304742656 406.803827193116 23.7834502369168
vertex 568.379304742656 400.240695793116 13.1640805590851
vertex 568.379304742656 400.240695793116 23.7834502369168
endloop
endfacet
facet normal -1.0 0.0 0.0
outer loop
vertex 568.379304742656 400.240695793116 13.1640805590851
vertex 568.379304742656 406.803827193116 23.7834502369168
vertex 568.379304742656 406.803827193116 13.1640805590851
endloop
endfacet
facet normal -0.0 0.0 -1.0
outer loop
vertex 568.379304742656 406.803827193116 23.7834502369168
vertex 566.562442742656 400.240695793116 23.7834502369168
vertex 566.562442742656 406.803827193116 23.7834502369168
endloop
endfacet
facet normal -0.0 0.0 -1.0
outer loop
vertex 566.562442742656 400.240695793116 23.7834502369168
vertex 568.379304742656 406.803827193116 23.7834502369168
vertex 568.379304742656 400.240695793116 23.7834502369168
endloop
endfacet
facet normal -0.0 -1.0 -0.0
outer loop
vertex 568.379304742656 406.803827193116 23.7834502369168
vertex 566.562442742656 406.803827193116 13.1640805590851
vertex 568.379304742656 406.803827193116 13.1640805590851
endloop
endfacet
facet normal -0.0 -1.0 -0.0
outer loop
vertex 566.562442742656 406.803827193116 13.1640805590851
vertex 568.379304742656 406.803827193116 23.7834502369168
vertex 566.562442742656 406.803827193116 23.7834502369168
endloop
endfacet
facet normal 0.0 0.0 1.0
outer loop
vertex 568.379304742656 400.240695793116 13.1640805590851
vertex 566.562442742656 406.803827193116 13.1640805590851
vertex 566.562442742656 400.240695793116 13.1640805590851
endloop
endfacet
facet normal 0.0 0.0 1.0
outer loop
vertex 566.562442742656 406.803827193116 13.1640805590851
vertex 568.379304742656 400.240695793116 13.1640805590851
vertex 568.379304742656 406.803827193116 13.1640805590851
endloop
endfacet
facet normal -0.0 1.0 -0.0
outer loop
vertex 566.562442742656 400.240695793116 23.7834502369168
vertex 568.379304742656 400.240695793116 13.1640805590851
vertex 566.562442742656 400.240695793116 13.1640805590851
endloop
endfacet
facet normal -0.0 1.0 -0.0
outer loop
vertex 568.379304742656 400.240695793116 13.1640805590851
vertex 566.562442742656 400.240695793116 23.7834502369168
vertex 568.379304742656 400.240695793116 23.7834502369168
endloop
endfacet
facet normal -1.0 0.0 0.0
outer loop
vertex 568.825404942656 391.477002669882 24.266929110646
vertex 568.825404942656 384.827816069882 13.5083191943056
vertex 568.825404942656 384.827816069882 24.266929110646
endloop
endfacet
facet normal -1.0 0.0 0.0
outer loop
vertex 568.825404942656 384.827816069882 13.5083191943056
vertex 568.825404942656 391.477002669882 24.266929110646
vertex 568.825404942656 391.477002669882 13.5083191943056
endloop
endfacet
facet normal -0.0 0.0 -1.0
outer loop
vertex 568.825404942656 391.477002669882 24.266929110646
vertex 566.562442742656 384.827816069882 24.266929110646
vertex 566.562442742656 391.477002669882 24.266929110646
endloop
endfacet
facet normal -0.0 0.0 -1.0
outer loop
vertex 566.562442742656 384.827816069882 24.266929110646
vertex 568.825404942656 391.477002669882 24.266929110646
vertex 568.825404942656 384.827816069882 24.266929110646
endloop
endfacet
facet normal -0.0 -1.0 -0.0
outer loop
vertex 568.825404942656 391.477002669882 24.266929110646
vertex 566.562442742656 391.477002669882 13.5083191943056
vertex 568.825404942656 391.477002669882 13.5083191943056
endloop
endfacet
facet normal -0.0 -1.0 -0.0
outer loop
vertex 566.562442742656 391.477002669882 13.5083191943056
vertex 568.825404942656 391.477002669882 24.266929110646
vertex 566.562442742656 391.477002669882 24.266929110646
endloop
endfacet
facet normal 0.0 0.0 1.0
outer loop
vertex 568.825404942656 384.827816069882 13.5083191943056
vertex 566.562442742656 391.477002669882 13.5083191943056
vertex 566.562442742656 384.827816069882 13.5083191943056
endloop
endfacet
facet normal 0.0 0.0 1.0
outer loop
vertex 566.562442742656 391.477002669882 13.5083191943056
vertex 568.825404942656 384.827816069882 13.5083191943056
vertex 568.825404942656 391.477002669882 13.5083191943056
endloop
endfacet
facet normal -0.0 1.0 -0.0
outer loop
vertex 566.562442742656 384.827816069882 24.266929110646
vertex 568.825404942656 384.827816069882 13.5083191943056
vertex 566.562442742656 384.827816069882 13.5083191943056
endloop
endfacet
facet normal -0.0 1.0 -0.0
outer loop
vertex 568.825404942656 384.827816069882 13.5083191943056
vertex 566.562442742656 384.827816069882 24.266929110646
vertex 568.825404942656 384.827816069882 24.266929110646
endloop
endfacet
endsolid HOUSE
